<?xml version="1.0" encoding="utf-8"?>
<!-- Generator: Adobe Illustrator 23.0.3, SVG Export Plug-In . SVG Version: 6.00 Build 0)  -->
<svg version="1.1" id="Calque_1" xmlns="http://www.w3.org/2000/svg" xmlns:xlink="http://www.w3.org/1999/xlink" x="0px" y="0px"
	 viewBox="0 0 32 32" style="enable-background:new 0 0 32 32;" xml:space="preserve">
<style type="text/css">
	.st0{fill:#FFFFFF;}
</style>
<g>
	<g>
		<g>
			<path class="st0" d="M20.5,16.8h-7c-0.5,0-0.9,0.4-0.9,0.9s0.4,0.9,0.9,0.9h7c0.5,0,0.9-0.4,0.9-0.9S21,16.8,20.5,16.8z
				 M21.9,12.7h-9.7c-0.5,0-0.9,0.4-0.9,0.9c0,0.5,0.4,0.9,0.9,0.9h9.7c0.5,0,0.9-0.4,0.9-0.9C22.8,13.1,22.4,12.7,21.9,12.7z
				 M25.1,8c-2.1-1.9-5-2.9-8-2.9c-3,0-5.9,1-8,2.9c-2.1,1.9-3.3,4.3-3.3,7c0,3,1.5,5.8,4.2,7.6v5.1l5.1-3.1c0.7,0.1,1.4,0.2,2,0.2
				c3,0,5.9-1,8-2.9c2.1-1.9,3.3-4.3,3.3-7C28.4,12.3,27.2,9.9,25.1,8z M17.1,23.1c-0.8,0-1.5-0.1-2.3-0.2l-0.1,0l-3,1.8l0-3
				l-0.1-0.1c-1.2-0.7-2.2-1.7-3-2.8c-0.7-1.2-1.1-2.5-1.1-3.8c0-4.5,4.3-8.1,9.5-8.1s9.5,3.6,9.5,8.1
				C26.6,19.4,22.3,23.1,17.1,23.1z"/>
		</g>
	</g>
</g>
</svg>
