<svg xmlns="http://www.w3.org/2000/svg" width="51" height="51">
    <path fill="#06101F" fill-rule="evenodd" d="M25.205.721c13.838 0 25.056 11.121 25.056 24.84S39.043 50.402 25.205 50.402C11.367 50.402.15 39.28.15 25.561.15 11.842 11.367.721 25.205.721z"/>
    <path fill="#FFF" fill-rule="evenodd" d="M11.292 33.816V32.48c.771 0 1.399-.599 1.399-1.336v-1.336h11.886v-.668H12.691v-4.008c0-3.684 3.136-6.681 6.991-6.681h3.496v-.668c0-1.105.941-2.004 2.098-2.004s2.098.899 2.098 2.004v.668h3.496c3.855 0 6.992 2.997 6.992 6.681v4.008H25.975v.668h11.886v1.336c0 .737.628 1.336 1.399 1.336v1.336H11.292zm14.683-16.033c0-.369-.313-.668-.699-.668-.386 0-.699.299-.699.668v.668h1.398v-.668zm10.488 10.021v-2.672c0-2.947-2.509-5.345-5.593-5.345H19.682c-3.084 0-5.593 2.398-5.593 5.345v2.672h22.374zm0 3.34H14.089c0 .487-.136.943-.376 1.336h23.126a2.551 2.551 0 0 1-.376-1.336zM30.87 15.779h4.195v1.336H30.87v-1.336zm-2.133-2.247l2.966-2.834.989.945-2.966 2.833-.989-.944zm-4.16-5.101h1.398v4.008h-1.398V8.431zm-4.895 8.684h-4.195v-1.336h4.195v1.336zm-1.822-5.473l.989-.945 2.966 2.834-.989.945-2.966-2.834z"/>
</svg>
