<svg xmlns="http://www.w3.org/2000/svg" width="16" height="16">
    <path fill="#E0CD08" fill-rule="evenodd" d="M16 8.984v-2l-2.39-.996a5.545 5.545 0 0 0-.223-.547l.965-2.402-1.415-1.414-2.381.98a5.584 5.584 0 0 0-.558-.23L8.984 0h-2l-.988 2.367c-.199.07-.391.144-.58.234l-2.377-.954-1.414 1.414.969 2.355c-.094.193-.17.39-.242.594L0 7.016v2l2.354.98c.072.203.15.4.244.594l-.951 2.371 1.414 1.414 2.361-.973c.189.09.383.163.582.231L7.016 16h2l.99-2.379c.189-.07.377-.144.556-.23l2.399.96 1.414-1.414-.985-2.386c.084-.179.153-.361.219-.547L16 8.984zM7.985 11a3.001 3.001 0 0 1 0-6 3.001 3.001 0 0 1 0 6z"/>
</svg>
