<svg id="Calque_1" xmlns="http://www.w3.org/2000/svg" viewBox="0 0 1280 72"><defs><style>.cls-1{opacity:0.02;}.cls-2{fill:#FFFFFF;}</style></defs><title>Plan de travail 1</title><g class="cls-1"><path class="cls-2" d="M220.15,35.38q7.81,0,13.44,8.36,3.82,5.45,2,6.72a2,2,0,0,1-.91.18q-1.63-.18-16.17,1.18t-38.6,4q-24.07,2.63-47.14,5.72-16.89,42.87-27.61,71.93-21.8,58.12-19.44,75.75.18,1.27-.18,1.45-.91.72-4.09-.18A19.53,19.53,0,0,1,74.92,207a11.6,11.6,0,0,1-4.27-5.72q-1.82-4.9,3.82-24.8t23.43-74q5.08-15.26,13.62-38Q88.26,67.72,71,70.63q-8.9,1.63-18.17,3.81-11.44,29.25-21.07,55.4,4,3.09,4.27,10.17A45.43,45.43,0,0,1,34,154.91q-2.37,7.81-4.72,13.63a88.38,88.38,0,0,1-4.18,9.08q-2.18,3.82-8.72.73A17.48,17.48,0,0,1,6.16,166.54,18,18,0,0,1,6,156.73q3.27-12,7.45-25.07-3.45-1.09-7.9-2.54t-8.9-3q-4.45-1.54-9-3.09t-8.36-2.91q-3.81-1.37-6.81-2.36T-32.35,116l-1.64-.55L-37.43,113q-8.72-8.72,7.08-19.62a85.75,85.75,0,0,1,12.17-6.72,523.66,523.66,0,0,1,54.5-19.25q12-30.7,26.7-63.21t27-57q12.26-24.52,22.89-44.69t16.62-30.88L135.68-139q7.63,0,11.81,3.54a13.38,13.38,0,0,1,4.81,8.9,42.37,42.37,0,0,1-.36,11.62,60.51,60.51,0,0,1-3.09,11.81q-2.09,5.54-3.91,9.36t-2.54,4.36q-.73.55-2.18-.73a19.54,19.54,0,0,1-2.9-3.27,24.2,24.2,0,0,0-3.63-3.91,7.53,7.53,0,0,0-4-2.09Q108.8-68.15,57.93,61.36,86.09,54.1,117.7,48.28q8-20.34,17.89-44.78T154-41.18q8.53-20.25,16-37.6t11.81-27.16l4.36-9.81c.36.12.91.33,1.64.64s2,.88,3.82,1.72a42.34,42.34,0,0,1,4.72,2.54,18.47,18.47,0,0,1,3.54,2.91,3.35,3.35,0,0,1,1.18,3.09q-8.54,14.71-61.58,149.5,19.43-3.08,38.42-5.36t29-3.09q10-.82,13.26-.82M16.52,121.85q6.72-20.16,14.71-41.23Q-1.29,91-18.18,102.6q-8.17,5.81-3.63,6.36,11.08.36,38.33,12.9"/><path class="cls-2" d="M321.51,37.57q1.63,1.63-5.54,8.27T290.81,67.17a55.39,55.39,0,0,1-22.07,10.54,65.5,65.5,0,0,1-23.89,1.64,33.08,33.08,0,0,1-18.53-8.27q-7.45-6.81-6.36-17.53a59,59,0,0,1,5.36-19.25A68.78,68.78,0,0,1,235,18.49a86.15,86.15,0,0,1,9.81-10q4.54-3.82,6.18-3.81,10-6,19,.63T279.18,27a13.25,13.25,0,0,1-4.27,10.08A31.39,31.39,0,0,1,263.2,44.2a100.47,100.47,0,0,1-13.26,3.91q-6,1.27-12.17,2.18-2.54,9.45,1.55,15.44t17.17,6a29.2,29.2,0,0,0,10-2,54.22,54.22,0,0,0,10.45-5.18,115.87,115.87,0,0,0,9.9-7.09q4.9-3.91,8.9-7.72t7.08-7q3.08-3.17,4.72-5.18l1.82-2q4.18-1.63,7.08-.82a12.4,12.4,0,0,1,5.09,2.82M256.66,19.22a52.1,52.1,0,0,0-7.81,8.9A73.51,73.51,0,0,0,241.22,41a67.23,67.23,0,0,0,13.53-4.63,26.25,26.25,0,0,0,7.54-5,9.82,9.82,0,0,0,2.63-4.9,7.58,7.58,0,0,0-.27-4.27,9.33,9.33,0,0,0-2-3q-1.46-1.45-6,0"/><path class="cls-2" d="M381.37-110.84a18.77,18.77,0,0,1,7.45,13.35,45.74,45.74,0,0,1-1.72,18.44,131,131,0,0,1-8.9,22Q372.1-44.9,365.48-34.37t-14.8,21.8q-8.17,11.27-13.44,18t-10.35,12.9a252.83,252.83,0,0,0-6,29.16A159.33,159.33,0,0,0,319,70.72q.09,9.17.73,16.26a63.52,63.52,0,0,0,1.54,10.35l.91,3.27q-6.72,0-10.81-3.09T305.08,87q-2.18-7.45-1.27-20.71a298.62,298.62,0,0,1,4.54-32.88q5.08-26.16,19.89-62.94t30.61-61.85q15.8-25.07,22.53-19.44M355.94-54.89a415.4,415.4,0,0,0-19.25,43.23Q347.4-28,356.76-45.27t14-27.61q4.63-10.35,4.27-12-.19-2.54-3.09,1.64-3.09,4.9-16,28.34"/><path class="cls-2" d="M435.86-110.84a18.77,18.77,0,0,1,7.45,13.35,45.79,45.79,0,0,1-1.72,18.44,131,131,0,0,1-8.9,22Q426.59-44.9,420-34.37t-14.8,21.8Q397-1.3,391.72,5.41t-10.35,12.9a252.83,252.83,0,0,0-6,29.16,159.33,159.33,0,0,0-1.9,23.25q.09,9.17.73,16.26a63.52,63.52,0,0,0,1.54,10.35l.91,3.27q-6.72,0-10.81-3.09T359.57,87q-2.18-7.45-1.27-20.71a298.62,298.62,0,0,1,4.54-32.88q5.08-26.16,19.89-62.94t30.61-61.85q15.8-25.07,22.53-19.44M410.43-54.89a415.4,415.4,0,0,0-19.25,43.23Q401.89-28,411.25-45.27t14-27.61q4.63-10.35,4.27-12-.18-2.54-3.09,1.64-3.09,4.9-16,28.34"/><path class="cls-2" d="M429.32,10.32a22.65,22.65,0,0,1,5.45,4.45q3.27,3.36,6.81,7.08t8.17,8.08a47.19,47.19,0,0,0,10.54,7.45,64.73,64.73,0,0,0,12.81,5,46.66,46.66,0,0,0,16.08,1.18A73.42,73.42,0,0,0,508.7,39a8.56,8.56,0,0,1-.54.91A25.94,25.94,0,0,1,506.43,42a23.56,23.56,0,0,1-3.09,2.91,26.39,26.39,0,0,1-4.72,2.82A27.36,27.36,0,0,1,492,49.92a42.24,42.24,0,0,1-8.9.63,59.11,59.11,0,0,1-11.26-1.36,78.71,78.71,0,0,1-23.25-8.9,56.06,56.06,0,0,1-1.91,8.54,62.17,62.17,0,0,1-4,9.81A42.89,42.89,0,0,1,436.4,68a29.79,29.79,0,0,1-9.08,6.81,24.87,24.87,0,0,1-12,2.54,23.25,23.25,0,0,1-9.9-2.27,15.21,15.21,0,0,1-6-5,18.63,18.63,0,0,1-2.63-7.17,36.06,36.06,0,0,1-.54-7.81,52.24,52.24,0,0,1,1.18-8.18q1-4.63,1.63-6.81t1.55-4.9a53.72,53.72,0,0,1,4.09-8.27,72.38,72.38,0,0,1,6.72-9.54,25.22,25.22,0,0,1,8.81-7,9.83,9.83,0,0,1,9.08-.09M415,63.36q3.08,2,7.63-3.72a60.5,60.5,0,0,0,8-13.71,109.54,109.54,0,0,0,5.27-14.71q-2.72-2.36-5-4.63A31.28,31.28,0,0,1,427.68,23l-.91-1.09c-.12.24-.34.64-.64,1.18s-.88,1.67-1.73,3.36-1.69,3.36-2.54,5-1.76,3.6-2.73,5.9-1.85,4.45-2.63,6.45a63.19,63.19,0,0,0-2.09,6.27,46.09,46.09,0,0,0-1.27,5.81,12.49,12.49,0,0,0,.09,4.54,4.66,4.66,0,0,0,1.73,2.9"/></g><g class="cls-1"><path class="cls-2" d="M742.32-47.1q20.28,0,35.9,5.58t24.84,14.13A75.91,75.91,0,0,1,818.34-7.67a82.64,82.64,0,0,1,8.32,21.77,145.56,145.56,0,0,1,3,21,108.94,108.94,0,0,1,.11,16.41,66.22,66.22,0,0,1-1.25,8.78,10.31,10.31,0,0,1-.46,2.05q-1.83,8.89-3.87,16.86t-9.8,28.15a282.51,282.51,0,0,1-17.67,37.73q-9.92,17.55-28.38,41a291.18,291.18,0,0,1-41.14,42.62q-22.69,19.15-56.76,38.3a396.62,396.62,0,0,1-74.19,31.91q-46,14.59-67.93.45-16.87-10.71-11.63-33.51,6.16-27.35,40.8-55.84,27.58-22.79,67.7-40.58L677.59,19a3.87,3.87,0,0,1,1.48-.8c.68-.23,2-.61,3.88-1.14a30.63,30.63,0,0,1,5.24-1,11.23,11.23,0,0,1,4.9.68,6.93,6.93,0,0,1,3.76,3.08Q698.1,22,698,26.52A38.63,38.63,0,0,1,695.6,37.7Q692.18,47.27,653,158.5q22.34-8,45.13-13.68a45.74,45.74,0,0,1,12.76-1.59,26.69,26.69,0,0,1,9.46,1.94,27.28,27.28,0,0,1,6.38,3.65,19.41,19.41,0,0,1,3.53,3.53l1.14,1.6a801.73,801.73,0,0,0-87.53,31q-12.31,34.65-19.6,55.84t-8.43,24.61q-3.88,14.13-21.43,4.33a5.61,5.61,0,0,1-2.73-3.3,10.45,10.45,0,0,1,.34-5.81q1-3.65,2.28-6.84t3.76-9.12q2.51-5.93,4.1-10,2.28-5.93,13.22-37.15-75.21,36-81.37,67.7-5.25,26.67,22.79,26,28.94-.68,79.32-27.35,29.18-15.5,49.69-31.68,16.86-13.22,30.2-25.3a401.54,401.54,0,0,0,28.95-29.51,273.58,273.58,0,0,0,26.9-35.1,265.71,265.71,0,0,0,20.85-40.57,232.67,232.67,0,0,0,14.13-47.52q8-43.76-17.78-67-23.48-21-65-17.1-48.32,4.34-96,40.12A270.81,270.81,0,0,0,585.27,50H584c-.53,0-1.63-.08-3.31-.23a43.68,43.68,0,0,1-4.78-.68q-2.28-.46-5-1.25a18.07,18.07,0,0,1-4.56-1.94,9.55,9.55,0,0,1-3-2.85,5.45,5.45,0,0,1-.91-3.76q.23-2.05,4.9-7.41a154.5,154.5,0,0,1,13.56-13.22q8.89-7.86,20.74-16.75a230.67,230.67,0,0,1,27.69-17.55,320.43,320.43,0,0,1,32.94-15.61,224.11,224.11,0,0,1,38.18-11.4,202.37,202.37,0,0,1,41.83-4.44"/><path class="cls-2" d="M1081.27,42.71a52.58,52.58,0,0,1,15,2.85q6.61,2.4,9.91,5.7a42.56,42.56,0,0,1,5.47,6.61,17.16,17.16,0,0,1,2.62,5.59l.68,2q-39.66-5.92-110.32-3.42-7.3,15-7.52,21.88-2.28,5.47-5.7,15T979.6,134q-8.43,25.42-14.25,46.16a379,379,0,0,0-9.12,40.91q-3.3,20.17-.34,27.24h-3.31a14.06,14.06,0,0,1-3.65-.46q-1.71-.46-4.22-1.37a12.14,12.14,0,0,1-4.22-2.51,31.11,31.11,0,0,1-3.65-4.22,16.28,16.28,0,0,1-2.74-6.38,76.68,76.68,0,0,1-1.25-8.66,39.64,39.64,0,0,1,.91-11.51q2.51-17.55,12.65-49.92t18.8-55.84L973.91,84H965l13.22-19.83a2.46,2.46,0,0,0,.45-.91q-25.53,1.36-53,3.65t-41.94,3.65q-14.47,1.36-14.71,1.36-1.13-.23-4.67-5t-6.72-9.34l-3-4.56q4.1-3,132.43-8,35.1-74.53,44.22-73.62a13.76,13.76,0,0,1,7,2.85,16.64,16.64,0,0,1,4.56,5.13,55.55,55.55,0,0,0,3,4.9c1,1.45,1.86,2.16,2.62,2.16q.91,0-3.88,8t-14.36,23.25q-9.57,15.27-15.73,26.44,52.88-1.83,66.79-1.37"/></g></svg>