<?xml version="1.0" encoding="utf-8"?>
<!-- Generator: Adobe Illustrator 22.0.0, SVG Export Plug-In . SVG Version: 6.00 Build 0)  -->
<svg version="1.1" id="Layer_1" xmlns="http://www.w3.org/2000/svg" xmlns:xlink="http://www.w3.org/1999/xlink" x="0px" y="0px"
	 viewBox="0 0 22.2 18.7" style="enable-background:new 0 0 22.2 18.7;" xml:space="preserve">
<style type="text/css">
	.st0{fill:#F7E200;}
</style>
<g>
	<path class="st0" d="M17.1,14.1h-12c-0.5,0-1-0.4-1-1l0,0c0-0.5,0.4-1,1-1H17c0.5,0,1,0.4,1,1l0,0C18,13.7,17.6,14.1,17.1,14.1z"/>
	<path class="st0" d="M17.1,10.3h-12c-0.5,0-1-0.4-1-1l0,0c0-0.5,0.4-1,1-1H17c0.5,0,1,0.4,1,1l0,0C18,9.9,17.6,10.3,17.1,10.3z"/>
	<path class="st0" d="M17.1,6.5H9.7c-0.5,0-1-0.4-1-1l0,0c0-0.5,0.4-1,1-1h7.4c0.5,0,1,0.4,1,1l0,0C18,6,17.6,6.5,17.1,6.5z"/>
</g>
</svg>
