<svg xmlns="http://www.w3.org/2000/svg" width="14" height="15">
    <path fill="#111f35" fill-rule="evenodd" d="M8.233 3.689c-.342-.345-.896-.345-1.238 0L6.685 4 2.353 8.364l.001.001-.136.138S1.783 8.944.8 12.136l-.021.068-.053.174-.048.159-.041.135-.095.321c-.07.241-.243.785-.048.982.188.189.734.023.973-.049l.317-.095.14-.043.149-.046.182-.056.053-.017c3.019-.946 3.561-1.389 3.606-1.43v-.001l.003-.002.14-.141.01.009 4.332-4.363V7.74l.309-.311c.342-.344.342-.903 0-1.247L8.233 3.689zm-2.814 7.983l-.014.009-.011.007-.012.007-.011.007c-.144.087-.567.311-1.594.685-.12.044-.25.09-.387.138l-1.459-1.47c.047-.139.093-.271.137-.393.371-1.037.593-1.464.679-1.609l.006-.009.008-.014.006-.01.01-.015.106-.107 2.645 2.664-.109.11zm7.764-7.983l-2.475-2.494c-.342-.344-.896-.344-1.238 0l-.619.624c-.341.344-.341.902 0 1.246l2.476 2.494c.342.344.896.344 1.238 0l.618-.624c.342-.344.342-.902 0-1.246z"/>
</svg>
