<?xml version="1.0" encoding="utf-8"?>
<!-- Generator: Adobe Illustrator 23.0.3, SVG Export Plug-In . SVG Version: 6.00 Build 0)  -->
<svg version="1.1" id="Calque_1" xmlns="http://www.w3.org/2000/svg" xmlns:xlink="http://www.w3.org/1999/xlink" x="0px" y="0px"
	 viewBox="0 0 32 32" style="enable-background:new 0 0 32 32;" xml:space="preserve">
<style type="text/css">
	.st0{fill:#FFFFFF;}
</style>
<g>
	<path class="st0" d="M27.7,15.3h-5.9V5.7c0-0.4-0.3-0.7-0.7-0.7h-1h-0.9h-0.6h-0.9h-0.6h-0.9h-0.6h-0.9h-0.6h-0.9h-1
		c-0.4,0-0.7,0.3-0.7,0.7v12.5H5.7c-0.4,0-0.7,0.3-0.7,0.7v7.3C5,26.7,5.3,27,5.7,27h2.2h2.2h2.2h2.9h2.9h2.9h2.2h2.2h2.2
		c0.4,0,0.7-0.3,0.7-0.7V16C28.4,15.6,28.1,15.3,27.7,15.3z M7.9,22.6v2.9H6.5v-5.9h5.1v5.9h-1.5v-2.9H7.9z M20.4,25.5h-2.2v-2.9
		h-2.9v2.9h-2.2v-19h7.3V25.5z M27,25.5h-1.5v-2.9h-2.2v2.9h-1.5v-8.8H27V25.5z"/>
	<path class="st0" d="M14.2,11.6h2.2v2.9h-2.2V11.6z"/>
	<path class="st0" d="M17.1,11.6h2.2v2.9h-2.2V11.6z"/>
	<path class="st0" d="M14.2,7.9h2.2v2.9h-2.2V7.9z"/>
	<path class="st0" d="M17.1,7.9h2.2v2.9h-2.2V7.9z"/>
	<path class="st0" d="M14.2,15.3h2.2v2.9h-2.2V15.3z"/>
	<path class="st0" d="M17.1,15.3h2.2v2.9h-2.2V15.3z"/>
	<path class="st0" d="M14.2,18.9h2.2v2.9h-2.2V18.9z"/>
	<path class="st0" d="M17.1,18.9h2.2v2.9h-2.2V18.9z"/>
</g>
</svg>
