<?xml version="1.0" encoding="utf-8"?>
<!-- Generator: Adobe Illustrator 23.0.3, SVG Export Plug-In . SVG Version: 6.00 Build 0)  -->
<svg version="1.1" id="Layer_1" xmlns="http://www.w3.org/2000/svg" xmlns:xlink="http://www.w3.org/1999/xlink" x="0px" y="0px"
	 viewBox="0 0 22.2 18.7" style="enable-background:new 0 0 22.2 18.7;" xml:space="preserve">
<style type="text/css">
	.st0{fill:#FFFFFF;}
</style>
<g>
	<path class="st0" d="M17.5,14.3h-4.1v-0.7h4.1c0.3,0,0.6-0.3,0.6-0.6v-0.9c0-1.7-0.6-3.3-1.7-4.5c-1-1.2-2.4-2-3.9-2.4V4.3h0.4
		c0.3,0,0.6-0.3,0.6-0.6V2.8c0-0.8-0.7-1.5-1.5-1.5H10C9.3,1.4,8.6,2.1,8.6,2.9v0.9c0,0.3,0.3,0.6,0.6,0.6h0.4v0.9
		C8.1,5.6,6.7,6.4,5.7,7.6c-1,1.3-1.6,2.9-1.6,4.6v0.9c0,0.3,0.3,0.6,0.6,0.6h4.1v0.7H4.6c-0.8,0-1.5,0.7-1.5,1.5v0.9
		c0,0.3,0.3,0.6,0.6,0.6h14.8c0.3,0,0.6-0.3,0.6-0.6v-0.9C19,15.1,18.3,14.3,17.5,14.3z M9.8,2.9c0-0.2,0.2-0.4,0.4-0.4H12
		c0.2,0,0.4,0.2,0.4,0.4v0.4H9.8V2.9z M11.4,4.4v0.7h-0.7V4.4H11.4z M7.3,7.5c1-0.8,2.3-1.3,3.7-1.3c1.3,0,2.6,0.5,3.7,1.3
		c1,0.8,1.7,2,2,3.2H5.3C5.7,9.5,6.4,8.4,7.3,7.5z M5.1,12.6v-0.4c0-0.1,0-0.3,0-0.4h11.8c0,0.1,0,0.3,0,0.4v0.4H5.1z M12.4,13.7
		v0.7H9.8v-0.7H12.4z M17.9,16.2H4.3v-0.4c0-0.2,0.2-0.4,0.4-0.4h12.9c0.2,0,0.4,0.2,0.4,0.4L17.9,16.2L17.9,16.2z"/>
	<path class="st0" d="M6,4.2c0.1,0.1,0.3,0.2,0.4,0.2l0,0c0.2,0,0.3-0.1,0.4-0.2C7,4.1,7,4,7,3.8c0-0.2-0.1-0.3-0.2-0.4L5.9,2.5
		C5.8,2.4,5.7,2.3,5.5,2.3S5.2,2.4,5.1,2.5C5,2.6,4.9,2.8,4.9,2.9C4.9,3,5,3.2,5.1,3.3L6,4.2z"/>
	<path class="st0" d="M15.7,4.4c0.2,0,0.3-0.1,0.4-0.2L17,3.3c0.2-0.2,0.2-0.6,0-0.7c-0.1-0.1-0.3-0.2-0.4-0.2
		c-0.2,0-0.3,0.1-0.4,0.2l-0.9,0.9c-0.2,0.2-0.2,0.6,0,0.7C15.4,4.3,15.5,4.4,15.7,4.4z"/>
	<path class="st0" d="M3.7,6.2h1.9c0.3,0,0.6-0.3,0.6-0.6c0-0.3-0.3-0.6-0.6-0.6H3.7c-0.3,0-0.6,0.3-0.6,0.6C3.1,6,3.3,6.2,3.7,6.2z
		"/>
	<path class="st0" d="M16,5.7c0,0.3,0.3,0.6,0.6,0.6h1.9C18.7,6.2,19,6,19,5.7c0-0.3-0.3-0.6-0.6-0.6h-1.9C16.3,5.1,16,5.3,16,5.7z"
		/>
</g>
</svg>
