<svg
    xmlns="http://www.w3.org/2000/svg"
    viewBox="0 0 32 32"
    id="vector">
    <path
        id="path"
        d="M 16 0 C 24.837 0 32 7.163 32 16 C 32 24.837 24.837 32 16 32 C 7.163 32 0 24.837 0 16 C 0 7.163 7.163 0 16 0 Z"
        fill="#f5c767"
        fill-rule="evenodd"/>
    <path
        id="path_1"
        d="M 22.433 15.611 L 16.77 10.263 C 16.558 10.058 16.273 9.946 15.979 9.951 C 15.677 9.951 15.416 10.055 15.196 10.263 L 14.544 10.879 C 14.438 10.97 14.353 11.084 14.296 11.211 C 14.239 11.339 14.21 11.478 14.213 11.618 C 14.213 11.914 14.323 12.161 14.544 12.358 L 17.092 14.773 L 10.968 14.773 C 10.831 14.768 10.694 14.793 10.567 14.847 C 10.44 14.9 10.326 14.98 10.233 15.081 C 10.046 15.283 9.945 15.55 9.951 15.825 L 9.951 16.876 C 9.951 17.167 10.045 17.414 10.233 17.62 C 10.326 17.721 10.44 17.801 10.567 17.854 C 10.694 17.908 10.831 17.933 10.968 17.928 L 17.092 17.928 L 14.543 20.335 C 14.438 20.429 14.354 20.544 14.297 20.673 C 14.241 20.802 14.212 20.942 14.213 21.083 C 14.213 21.373 14.323 21.622 14.543 21.83 L 15.196 22.446 C 15.422 22.649 15.683 22.75 15.979 22.75 C 16.28 22.75 16.544 22.649 16.77 22.446 L 22.433 17.098 C 22.537 17.003 22.619 16.888 22.675 16.759 C 22.73 16.63 22.758 16.49 22.755 16.35 C 22.759 16.211 22.732 16.072 22.677 15.944 C 22.621 15.817 22.538 15.703 22.433 15.611 Z"
        fill="#363c50"
        fill-rule="evenodd"/>
</svg>
