<svg xmlns="http://www.w3.org/2000/svg" width="11" height="15">
    <path fill="#EA0000" fill-rule="evenodd" d="M10.835 3.952c-.054.036-.117.057-.187.057H.353c-.07 0-.133-.021-.187-.057-.131-.087-.201-.263-.147-.435l.28-.891c.074-.235.281-.393.515-.393h9.373c.234 0 .441.158.515.393l.28.891c.054.172-.016.348-.147.435zM6.682.905H4.319v.422h-.854V.846c0-.466.358-.846.798-.846h2.475c.44 0 .798.38.797.846v.481h-.853V.905zm-5.188 4.01h8.012c.22 0 .393.198.375.43l-.67 8.787c-.037.49-.423.868-.886.868H2.676c-.463 0-.849-.378-.886-.868l-.67-8.787c-.018-.232.155-.43.374-.43zm6.093 9.148l.025.001c.224 0 .412-.186.426-.426l.4-7.214c.014-.249-.165-.463-.401-.478-.236-.015-.437.176-.451.425l-.4 7.213c-.014.25.165.464.401.479zm-2.509-.452c0 .25.191.453.427.453s.427-.203.427-.453V6.398c0-.25-.191-.453-.427-.453s-.427.203-.427.453v7.213zm-2.096.028c.014.24.202.425.426.425l.026-.001c.236-.016.415-.23.4-.48l-.42-7.213c-.014-.25-.217-.439-.452-.424-.235.015-.414.23-.4.48l.42 7.213z"/>
</svg>
